{"title":"Romeo Ranjha 2014 Punjabi  DVDSCR Rip Mp3 GOPI SAHI","uid":10166924,"size":308564360,"categoryP":"video","categoryS":"movies","magnet":"?xt=urn:btih:4e005ac10a5d402815afeefc892198c485b7f78f&amp;dn=Romeo+Ranjha+2014+Punjabi++DVDSCR+Rip+Mp3+GOPI+SAHI&amp;tr=udp%3A%2F%2Ftracker.openbittorrent.com%3A80&amp;tr=udp%3A%2F%2Fopen.demonii.com%3A1337&amp;tr=udp%3A%2F%2Ftracker.coppersurfer.tk%3A6969&amp;tr=udp%3A%2F%2Fexodus.desync.com%3A6969","seeders":0,"leechers":1,"uploader":"jatt13","files":1,"time":1400351206,"description":"Video\nID                             : 1\nFormat                         : AVC\nFormat/Info                    : Advanced Video Codec\nFormat profile                 : &lt;a class=&quot;__cf_email__&quot; href=&quot;/cdn-cgi/l/email-protection&quot; data-cfemail=&quot;a6ebc7cfc8e6ea928896&quot;&gt;[email&amp;#160;protected]&lt;/a&gt;&lt;script cf-hash='f9e31' type=&quot;text/javascript&quot;&gt;\n/* &lt;![CDATA[ */!function(){try{var t=&quot;currentScript&quot;in document?document.currentScript:function(){for(var t=document.getElementsByTagName(&quot;script&quot;),e=t.length;e--;)if(t[e].getAttribute(&quot;cf-hash&quot;))return t[e]}();if(t&amp;&amp;t.previousSibling){var e,r,n,i,c=t.previousSibling,a=c.getAttribute(&quot;data-cfemail&quot;);if(a){for(e=&quot;&quot;,r=parseInt(a.substr(0,2),16),n=2;a.length-n;n+=2)i=parseInt(a.substr(n,2),16)^r,e+=String.fromCharCode(i);e=document.createTextNode(e),c.parentNode.replaceChild(e,c)}}}catch(u){}}();/* ]]&gt; */&lt;/script&gt;\nFormat settings, CABAC         : Yes\nFormat settings, ReFrames      : 4 frames\nCodec ID                       : V_MPEG4/ISO/AVC\nDuration                       : 2h 3mn\nBit rate                       : 300 Kbps\nWidth                          : 640 pixels\nHeight                         : 304 pixels\nDisplay aspect ratio           : 2.105\nFrame rate mode                : Constant\nFrame rate                     : 29.970 fps\nColor space                    : YUV\nChroma subsampling             : 4:2:0\nBit depth                      : 8 bits\nScan type                      : Progressive\nBits/(Pixel*Frame)             : 0.051\nStream size                    : 260 MiB (88%)\nTitle                          : GOPI SAHI\nWriting library                : x264 core 130 r2273 b3065e6\nLanguage                       : Panjabi\nDefault                        : Yes\nForced                         : No\nColor primaries                : BT.601 NTSC\nTransfer characteristics       : BT.709\nMatrix coefficients            : BT.601\n\nAudio\nID                             : 3\nFormat                         : MPEG Audio\nFormat version                 : Version 1\nFormat profile                 : Layer 3\nMode                           : Joint stereo\nMode extension                 : MS Stereo\nCodec ID                       : A_MPEG/L3\nCodec ID/Hint                  : MP3\nDuration                       : 2h 3mn\nBit rate mode                  : Constant\nBit rate                       : 32.0 Kbps\nChannel count                  : 2 channels\nSampling rate                  : 44.1 KHz\nCompression mode               : Lossy\nStream size                    : 28.2 MiB (10%)\nTitle                          : GOPI SAHI\nLanguage                       : Panjabi\nDefault                        : Yes\n[IMG]http://i.imgur.com/LmVSegU.jpg[/IMG]\n[IMG]http://i.imgur.com/46C8LW5.jpg[/IMG]\n[IMG]http://i.imgur.com/dOz7bsb.jpg[/IMG]\n[IMG]http://i.imgur.com/CLA3Wx0.jpg[/IMG]\n[IMG]http://i.imgur.com/EOcnovN.jpg[/IMG]\n[IMG]http://i.imgur.com/FXfMB1D.jpg[/IMG]\n[IMG]http://i.imgur.com/VjYLdkM.jpg[/IMG]\n","torrent":{"xt":"urn:btih:4e005ac10a5d402815afeefc892198c485b7f78f","amp;dn":"Romeo+Ranjha+2014+Punjabi++DVDSCR+Rip+Mp3+GOPI+SAHI","amp;tr":["udp%3A%2F%2Ftracker.openbittorrent.com%3A80","udp%3A%2F%2Fopen.demonii.com%3A1337","udp%3A%2F%2Ftracker.coppersurfer.tk%3A6969","udp%3A%2F%2Fexodus.desync.com%3A6969"],"infoHash":"4e005ac10a5d402815afeefc892198c485b7f78f","infoHashBuffer":{"type":"Buffer","data":[78,0,90,193,10,93,64,40,21,175,238,252,137,33,152,196,133,183,247,143]},"announce":[],"urlList":[]}}